<svg width="89" height="34" enable-background="new 0 0 186.8 66.5" viewBox="0 0 186.8 66.5" xmlns="http://www.w3.org/2000/svg" xmlns:xlink="http://www.w3.org/1999/xlink"><clipPath id="a"><path d="m0 0h186.8v66.5h-186.8z"/></clipPath><g fill="#fff"><path d="m0 .3v64.7h12.6v-34.6l37.1 35.8h1.3v-64.7h-12.6v33.8l-36.9-35z"/><path clip-path="url(#a)" d="m114.3 47.7-.2.2c-4 3.7-9.2 5.7-14.7 5.7-12.7 0-21.2-8.2-21.2-20.3 0-6.2 2-20.5 20.6-20.5 5.1 0 10.1 1.8 14.1 5l.2.2 8.3-10-.2-.2c-6.3-5-14.3-7.8-22.6-7.8-10.5 0-19.5 3.4-25.8 9.7-5.9 6-9.2 14.3-9.2 23.5 0 19.9 14.1 33.3 35 33.3 9 0 17.5-3.2 24-9.1l.2-.2z"/><path clip-path="url(#a)" d="m98.9 22.4c6 0 10.9 4.9 10.9 10.9s-4.9 10.9-10.9 10.9-10.9-4.9-10.9-10.9 4.9-10.9 10.9-10.9"/><path clip-path="url(#a)" d="m173.6 65h13.1l-28.3-64.7h-1.7l-29.4 64.7h14.1l3.9-8.9h24.3zm-23.1-20.9 6.7-15.3 6.9 15.3z"/></g></svg>