<svg enable-background="new 0 0 375.3 167.3" viewBox="0 0 375.3 167.3" xmlns="http://www.w3.org/2000/svg" xmlns:xlink="http://www.w3.org/1999/xlink"><clipPath id="a"><path d="m0 0h375.3v167.3h-375.3z"/></clipPath><g fill="#fff"><path clip-path="url(#a)" d="m226.4 156.4h19.8l-9.3 9.3h-32.7l24.5-25c2.1-2.3 1.5-4.7 1-5.9-.8-1.9-3-4.1-6.3-4.1-4.1 0-7.3 3.3-7.3 7.3h-9.3c0-9.2 7.5-16.7 16.7-16.7 6.5 0 12.3 3.8 14.9 9.8 2.4 5.5 1.3 11.6-2.8 16l-.1.1zm62.6-12.1c0-12.7-10.3-23-23-23s-23 10.3-23 23c0 2.9.6 5.7 1.6 8.2h10.6c-1.7-2.3-2.8-5.1-2.8-8.2 0-7.5 6.1-13.6 13.6-13.6s13.6 6.1 13.6 13.6-6.1 13.6-13.6 13.6c-4.4 0-8.3-2.1-10.8-5.4l-6.6 6.6c4.2 4.9 10.5 8.1 17.5 8.1 12.6.1 22.9-10.2 22.9-22.9m30.9 2.9c4.2-4.5 5.2-10.6 2.9-16.1-2.6-5.9-8.4-9.8-14.9-9.7-9.2 0-16.7 7.5-16.7 16.7h9.3c0-4.1 3.3-7.3 7.3-7.3 3.4 0 5.5 2.2 6.3 4.1.5 1.2 1.1 3.6-1 5.9l-24.5 25h32.7l9.3-9.3h-19.8zm53.6-2.9c0-12.7-10.3-23-23-23s-23 10.3-23 23c0 2.9.6 5.7 1.5 8.2h10.6c-1.7-2.3-2.8-5.1-2.8-8.2 0-7.5 6.1-13.6 13.6-13.6s13.6 6.1 13.6 13.6-6.1 13.6-13.6 13.6c-4.4 0-8.3-2.1-10.8-5.4l-6.6 6.6c4.2 4.9 10.5 8.1 17.5 8.1 12.7.1 23-10.2 23-22.9"/><path clip-path="url(#a)" d="m295 60.8c-7 0-13.3 3.1-17.5 8.1l6.6 6.6c2.5-3.3 6.4-5.4 10.8-5.4 7.5 0 13.6 6.1 13.6 13.6s-6.1 13.6-13.6 13.6-13.6-6.1-13.6-13.6c0-3.1 1-5.9 2.8-8.2h-10.6c-1 2.6-1.5 5.3-1.5 8.2 0 12.7 10.3 23 23 23s23-10.3 23-23c0-12.6-10.3-22.9-23-22.9m-29.7 1.6h-28.4v42.9h9.3v-33.6h28.5zm100.6-.1h-11.7l-22.9 30.5v-30.5h-9.3v42.9h11.7l22.9-30.5v30.5h9.3l9.3-9.3h-9.3zm-21.6 4.2v-12.8h-12.8z"/><path clip-path="url(#a)" d="m74.9 45.9c12.7 0 23-10.3 23-23 0-2.9-.6-5.7-1.6-8.2h-10.6c1.7 2.3 2.8 5.1 2.8 8.2 0 7.5-6.1 13.6-13.6 13.6s-13.6-6.1-13.6-13.6 6.1-13.6 13.6-13.6c4.4 0 8.3 2.1 10.8 5.4l6.6-6.6c-4.2-5-10.4-8.1-17.4-8.1-12.7 0-23 10.3-23 23 0 12.6 10.3 22.9 23 22.9m70.3-44.3h-12.6l-18.7 20.8v-20.8h-9.3l-9.3 9.3h9.3v33.6h9.3v-20.8l23.4 20.8h14l-24.9-22.2zm-135.9 9.3h-9.3l9.3-9.3h23.9c8.9 1 15.8 8.6 15.8 17.7 0 9.8-8 17.8-17.8 17.8h-12.5v7.4h-9.3v-33.6zm9.4 16.9h12.5c4.7 0 8.5-3.8 8.5-8.5s-3.8-8.5-8.5-8.5h-12.5z"/><path clip-path="url(#a)" d="m169.3 10.8v33.6h9.3v-16.8h20.4v16.8h9.3v-42.9h-9.3v16.8h-20.4v-16.8h-9.3l-9.3 9.3zm58.7 24.3 9.7-22.1 9.7 22.1h-19.4l9.3 9.3h24.4l-18.9-43h-10.3l-18.9 43h10.4zm75.8-.1h-21.4c.4-.9.7-1.8.9-2.8l5.8-21.4h14.6l.1 24.2 9.3-9.3v-24.2h-33.7l-9.3 9.3h9.3l-5.1 19c-.9 3.2-2.2 5.2-6.2 5.2h-3.3v9.3l9.3 9.3v-9.3h34.4l9.3 9.3v-18.6z"/><path clip-path="url(#a)" d="m176.4 83.7c0 12.7-10.3 23-23 23s-23-10.3-23-23 10.3-23 23-23c12.7.1 23 10.4 23 23m-9.4 0c0-7.5-6.1-13.6-13.6-13.6s-13.6 6.1-13.6 13.6 6.1 13.6 13.6 13.6 13.6-6.1 13.6-13.6m16.4-12h9.3l-5.1 18.9c-.4 1.5-2.3 6.4-9.2 5l-1.8 9.2c4.9 1 9.4.2 13.1-2.1 3.4-2.1 5.8-5.6 6.9-9.6l5.8-21.4h.3 15.9v33.6h9.3v-42.9h-35.2zm-55.2 20.4c0 7.3-5.9 13.2-13.2 13.2h-27.2v-33.5h-9.3l9.2-9.3h22.6c7.1 0 12.9 5.8 12.9 12.9 0 2-.5 3.9-1.3 5.6 3.8 2.3 6.3 6.4 6.3 11.1m-9.4 0c0-2.1-1.7-3.8-3.8-3.8h-8.5l-9.3-9.3h13.2c2 0 3.6-1.6 3.6-3.6s-1.6-3.6-3.6-3.6h-13.2v7.2 17h17.8c2.1-.1 3.8-1.8 3.8-3.9"/></g></svg>