<svg enable-background="new 0 0 300 133" viewBox="0 0 300 133" xmlns="http://www.w3.org/2000/svg"><g fill="#fff"><path d="m181.6 124.4h15.8l-7.4 7.4h-26l19.5-19.9c1.7-1.8 1.2-3.7.8-4.7-.7-1.5-2.4-3.3-5-3.3-3.2 0-5.8 2.6-5.8 5.8h-7.4c0-7.3 6-13.3 13.3-13.3 5.2 0 9.8 3 11.8 7.8 1.9 4.4 1 9.3-2.2 12.7l-.1.1zm49.8-9.6c0-10.1-8.2-18.3-18.3-18.3s-18.3 8.2-18.3 18.3c0 2.3.4 4.5 1.2 6.5h8.4c-1.4-1.8-2.2-4.1-2.2-6.5 0-6 4.9-10.8 10.8-10.8 6 0 10.8 4.9 10.8 10.8 0 6-4.9 10.8-10.8 10.8-3.5 0-6.6-1.7-8.6-4.3l-5.3 5.3c3.4 3.9 8.3 6.4 13.9 6.4 10.2.1 18.4-8.1 18.4-18.2zm24.6 2.3c3.3-3.6 4.2-8.4 2.3-12.8-2-4.7-6.7-7.8-11.8-7.8-7.3 0-13.3 5.9-13.3 13.3h7.4c0-3.2 2.6-5.8 5.8-5.8 2.7 0 4.4 1.8 5 3.3.4 1 .9 2.9-.8 4.7l-19.5 19.9h26l7.4-7.4h-15.8zm42.6-2.3c0-10.1-8.2-18.3-18.3-18.3s-18.3 8.2-18.3 18.3c0 2.3.4 4.5 1.2 6.5h8.4c-1.4-1.8-2.2-4.1-2.2-6.5 0-6 4.9-10.8 10.8-10.8 6 0 10.8 4.9 10.8 10.8 0 6-4.9 10.8-10.8 10.8-3.5 0-6.6-1.7-8.6-4.3l-5.3 5.3c3.4 3.9 8.3 6.4 13.9 6.4 10.2.1 18.4-8.1 18.4-18.2z"/><path d="m236.1 48.3c-5.6 0-10.5 2.5-13.9 6.4l5.3 5.3c2-2.6 5.1-4.3 8.6-4.3 6 0 10.8 4.9 10.8 10.8 0 6-4.9 10.8-10.8 10.8-6 0-10.8-4.9-10.8-10.8 0-2.5.8-4.7 2.2-6.5h-8.4c-.8 2-1.2 4.2-1.2 6.5 0 10.1 8.2 18.3 18.3 18.3s18.3-8.2 18.3-18.3c-.1-10-8.3-18.2-18.4-18.2zm-23.5 1.3h-22.6v34.1h7.4v-26.7h22.6zm80 0h-9.3l-18.2 24.3v-24.3h-7.4v34.2h9.3l18.2-24.3v24.3h7.4l7.4-7.4h-7.4zm-17.2 3.3v-10.2h-10.2z"/><path d="m61 36.5c10.1 0 18.3-8.2 18.3-18.3 0-2.3-.5-4.5-1.2-6.5h-8.4c1.4 1.8 2.2 4.1 2.2 6.5 0 6-4.9 10.8-10.8 10.8-6 0-10.8-4.9-10.8-10.8 0-6 4.9-10.8 10.8-10.8 3.5 0 6.6 1.7 8.6 4.3l5.3-5.3c-3.5-3.9-8.4-6.4-14-6.4-10.1 0-18.3 8.2-18.3 18.3 0 10 8.2 18.2 18.3 18.2zm55.9-35.2h-10l-14.9 16.5v-16.5h-7.4l-7.4 7.4h7.4v26.7h7.4v-16.5l18.6 16.6h11.2l-19.8-17.7zm-108 7.4h-7.5l7.4-7.4h19c7 .8 12.5 6.8 12.5 14.1 0 7.8-6.4 14.2-14.2 14.2h-9.9v5.9h-7.4v-26.8zm7.4 13.4h9.9c3.7 0 6.8-3 6.8-6.8 0-3.7-3-6.8-6.8-6.8h-10z"/><path d="m136.1 8.6v26.7h7.4v-13.3h16.2v13.4h7.4v-34.2h-7.4v13.4h-16.2v-13.4h-7.4l-7.4 7.4zm46.8 19.3 7.7-17.6 7.7 17.6h-15.4l7.4 7.4h19.4l-15-34.2h-8.2l-15 34.2h8.2zm60.3 0h-17c.3-.7.5-1.4.8-2.2l4.6-17h11.6v19.2l7.4-7.4v-19.3h-26.8l-7.4 7.4h7.4l-4.1 15.1c-.7 2.6-1.8 4.1-5 4.1h-2.6v7.4l7.4 7.4v-7.4h27.5l7.4 7.4v-14.7z"/><path d="m141.8 66.6c0 10.1-8.2 18.3-18.3 18.3s-18.3-8.2-18.3-18.3 8.2-18.3 18.3-18.3 18.3 8.2 18.3 18.3zm-7.5 0c0-6-4.9-10.8-10.8-10.8-6 0-10.8 4.9-10.8 10.8 0 6 4.9 10.8 10.8 10.8 6 0 10.8-4.8 10.8-10.8zm13-9.5h7.4l-4.1 15.1c-.3 1.2-1.8 5.1-7.4 4l-1.4 7.3c3.9.8 7.5.2 10.4-1.7 2.7-1.7 4.6-4.4 5.5-7.6l4.6-17h.2 12.7v26.7h7.4v-34.3h-28zm-43.9 16.2c0 5.8-4.7 10.5-10.5 10.5h-21.6v-26.7h-7.4l7.4-7.4h18c5.7 0 10.3 4.6 10.3 10.3 0 1.6-.4 3.1-1 4.4 2.8 1.8 4.8 5.1 4.8 8.9zm-7.4 0c0-1.7-1.4-3-3-3h-6.8l-7.4-7.4h10.5c1.6 0 2.9-1.3 2.9-2.9s-1.3-2.9-2.9-2.9h-10.5v5.7 13.5h14.2c1.6 0 3-1.4 3-3z"/></g></svg>