<svg enable-background="new 0 0 300 300" viewBox="0 0 300 300" xmlns="http://www.w3.org/2000/svg"><path d="m44.9 44.3h211.3v211.3h-211.3z" fill="#fafdff" transform="matrix(.7071 -.7071 .7071 .7071 -61.9631 150.4115)"/><path d="m84.3 83.7h132.6v132.6h-132.6z" fill="#ffdc00" transform="matrix(.7071 -.7071 .7071 .7071 -61.9624 150.4099)"/><g fill="#141414"><path d="m177.6 95.7h-8.9l-13.3 14.7v-14.7h-6.6l-6.6 6.6h6.6v23.8h6.6v-14.7l16.6 14.7h9.9l-17.6-15.7z"/><path d="m81.4 102.3v23.8h6.6v-5.2h8.9c7 0 12.6-5.7 12.6-12.6 0-6.5-4.9-11.8-11.2-12.5h-16.9l-6.6 6.6zm15.5-.1c3.3 0 6 2.7 6 6s-2.7 6-6 6h-8.9v-12z"/><path d="m127.8 127.1c9 0 16.3-7.3 16.3-16.3 0-2.1-.4-4-1.1-5.8h-7.5c1.2 1.6 2 3.6 2 5.8 0 5.3-4.3 9.6-9.6 9.6s-9.6-4.3-9.6-9.6 4.3-9.6 9.6-9.6c3.1 0 5.9 1.5 7.7 3.8l4.7-4.7c-3-3.5-7.4-5.7-12.4-5.7-9 0-16.3 7.3-16.3 16.3-.1 8.9 7.2 16.2 16.2 16.2z"/><path d="m151.4 134.9-13.4 30.4h7.3l2.8-6.6 6.9-15.7 6.9 15.7h-13.8l6.6 6.6h17.3l-13.4-30.4z"/><path d="m113.1 165.3v-11.9h14.5v11.9h6.6v-30.4h-6.6v11.9h-14.5v-11.9h-6.6l-6.6 6.6h6.6v23.8z"/><path d="m199 174.2h-18v30.3h6.6v-23.7h18z"/><path d="m122.5 172.9c-9 0-16.3 7.3-16.3 16.3s7.3 16.3 16.3 16.3 16.3-7.3 16.3-16.3-7.3-16.3-16.3-16.3zm0 25.9c-5.3 0-9.6-4.3-9.6-9.6s4.3-9.6 9.6-9.6 9.6 4.3 9.6 9.7c.1 5.2-4.3 9.5-9.6 9.5z"/><path d="m143.7 180.7h6.6l-3.6 13.4c-.3 1.1-1.6 4.5-6.5 3.5l-1.3 6.5c3.5.7 6.7.2 9.3-1.5 2.4-1.5 4.1-3.9 4.9-6.8l4.1-15.1h.2 11.3v23.8h6.6v-30.4h-24.9z"/><path d="m100.3 187.2c.6-1.2.9-2.5.9-3.9 0-5-4.1-9.1-9.1-9.1h-16.1l-6.5 6.6h6.6v23.7h19.2c5.1 0 9.3-4.2 9.3-9.3.1-3.5-1.7-6.4-4.3-8zm-5 10.6h-12.6v-12-5.1h9.3c1.4 0 2.5 1.1 2.5 2.5s-1.1 2.5-2.5 2.5h-9.3l6.6 6.6h6.1c1.5 0 2.7 1.2 2.7 2.7-.1 1.6-1.3 2.8-2.8 2.8z"/><path d="m217.2 192h5.2l5.9-5.9h-11.1v-5.3h22.3l-6.6-6.6h-28.9l6.6 6.6v17.1l6.6 6.6h11l6.6-6.6h-17.6z"/><path d="m202 158.6h-15.1c.3-.6.5-1.3.7-2l4.1-15.2h10.4l-.1 17.2 6.6-6.6v-17.1h-23.8l-6.6 6.6h6.6l-3.6 13.4c-.6 2.3-1.6 3.7-4.4 3.7h-2.3v6.6l6.6 6.6v-6.6h24.4l6.6 6.6v-13.2z"/></g><path d="m227.2 153.5c-1.5-2.3-5-3.7-9.4-3.8-1.8-1.8-10.9-11-16.6-13.5-5.7-2.6-18.6-3.4-21.1-3.5-2.9-3.2-6.3-4.9-9-4.5-1.7.2-3 1.2-3.7 2.8-2.1 4.6 1.6 9.8 4.9 14.5.4.6.8 1.1 1.2 1.7.5 7.2 6.6 18.2 13.2 21.2 6.9 3.1 19 .3 24.7-4.1.7-.1 1.3-.2 2-.2 5.6-.6 12.1-1.3 14.1-5.9.7-1.6.6-3.2-.3-4.7zm-58-21.7c.4-.9 1.1-1.5 2.1-1.7 1.6-.2 4.2.6 7 3.6-1.1 1.9-3.9 7.2-4.7 10.2-2.8-4-5.9-8.6-4.4-12.1zm44.4 30.2c1.7-2.6 3.8-8.2 4.5-10.3 4.1.1 6.5 1.5 7.4 2.9.5.8.6 1.7.2 2.7-1.6 3.5-7.1 4.2-12.1 4.7z" fill="#fafdff"/><path d="m200.6 166.9c-5.2 1.2-10 1.1-13.1-.3-6.5-2.9-12.8-15.5-12-21.5.3-2.1 3.2-7.8 4.7-10.4 2.9.2 15.1 1 20.2 3.3 5.2 2.3 13.8 10.9 15.8 13-1 2.8-3.3 8.8-4.7 10.4-1.9 2.2-6.1 4.3-10.9 5.5z" fill="#0cf"/><path d="m190.5 159.9c-1.9-.9-3.7-1.9-5.4-3.1s-3.3-2.6-4.8-4.1c.4 1 1 2 1.6 2.9.7.9 1.4 1.7 2.2 2.5 1.6 1.5 3.5 2.7 5.6 3.7 2 .9 4.2 1.5 6.4 1.8 1.1.1 2.2.1 3.3 0s2.2-.3 3.2-.7c-2.2-.1-4.3-.4-6.3-.9-1.9-.5-3.9-1.2-5.8-2.1z" fill="#fafdff"/><path d="m193.7 152.9c-2.4-1.1-4.8-2.3-7.2-3.6-2.3-1.3-4.6-2.7-6.9-4.3 1.7 2.2 3.8 4.1 6 5.7 2.3 1.6 4.7 3 7.2 4.1s5.2 2 7.9 2.7c2.7.6 5.5 1 8.2.8-2.7-.6-5.3-1.4-7.8-2.3-2.5-1-5-2-7.4-3.1z" fill="#fafdff"/><path d="m196.4 147c2.2 1 4.4 2.1 6.6 3.2s4.3 2.3 6.5 3.5c-.4-.5-.8-.9-1.3-1.4-.5-.4-.9-.9-1.4-1.3-1-.8-2-1.6-3-2.3-2.1-1.4-4.3-2.6-6.6-3.6s-4.7-1.9-7.1-2.5c-1.2-.3-2.4-.6-3.7-.8-.6-.1-1.2-.2-1.9-.2-.6-.1-1.3-.1-1.9-.1 2.4.8 4.7 1.7 6.9 2.6 2.4.9 4.6 1.8 6.9 2.9z" fill="#fafdff"/></svg>