<svg width="110" height="30" enable-background="new 0 0 1354.3 358.6" viewBox="0 0 1354.3 358.6" xmlns="http://www.w3.org/2000/svg" xmlns:xlink="http://www.w3.org/1999/xlink"><clipPath id="a"><path d="m0 0h1354.3v358.6h-1354.3z"/></clipPath><g fill="#fff"><path clip-path="url(#a)" d="m179.3 0c-98.9 0-179.3 80.4-179.3 179.3s80.4 179.3 179.3 179.3 179.3-80.4 179.3-179.3-80.4-179.3-179.3-179.3m0 298.6c-65.8 0-119.3-53.5-119.3-119.3s53.5-119.3 119.3-119.3 119.3 53.5 119.3 119.3-53.5 119.3-119.3 119.3"/><path clip-path="url(#a)" d="m929.4 7.1-129.8 129.8-129.7-129.8-129.8 129.8-129.7-129.8-42.5 42.4 129.8 129.8-129.8 129.8 42.5 42.4 129.7-129.8 129.8 129.8 42.4-42.4-129.8-129.8 87.4-87.3 259.5 259.5 42.4-42.4-129.7-129.8 129.7-129.8z"/><path clip-path="url(#a)" d="m1175 0c-98.9 0-179.3 80.4-179.3 179.3s80.4 179.3 179.3 179.3 179.3-80.4 179.3-179.3-80.4-179.3-179.3-179.3m0 298.6c-65.8 0-119.3-53.5-119.3-119.3s53.5-119.3 119.3-119.3 119.3 53.5 119.3 119.3-53.5 119.3-119.3 119.3"/></g></svg>