<svg enable-background="new 0 0 300 300" viewBox="0 0 300 300" xmlns="http://www.w3.org/2000/svg"><path d="m44 44h212.1v212.1h-212.1z" fill="#fafdff" transform="matrix(.7071 -.7071 .7071 .7071 -62.1327 150.0022)"/><path d="m83.5 83.5h133.1v133.1h-133.1z" fill="#ffdc00" transform="matrix(.7071 -.7071 .7071 .7071 -62.132 150.0006)"/><g fill="#141414"><path d="m121.3 208h11.8l-5.5 5.5h-19.4l14.5-14.8c1.3-1.4.9-2.8.6-3.5-.5-1.1-1.8-2.5-3.8-2.5-2.4 0-4.4 2-4.4 4.4h-5.5c0-5.5 4.4-9.9 9.9-9.9 3.8 0 7.3 2.3 8.8 5.8 1.4 3.3.8 6.9-1.7 9.5zm37.1-7.2c0-7.5-6.1-13.6-13.6-13.6s-13.6 6.1-13.6 13.6c0 1.7.3 3.4.9 4.9h6.3c-1-1.4-1.7-3-1.7-4.9 0-4.5 3.6-8.1 8.1-8.1s8.1 3.6 8.1 8.1-3.6 8.1-8.1 8.1c-2.6 0-4.9-1.3-6.4-3.2l-3.9 3.9c2.5 2.9 6.2 4.8 10.4 4.8 7.4 0 13.5-6.1 13.5-13.6zm18.3 1.7c2.5-2.6 3.1-6.3 1.7-9.6-1.5-3.5-5-5.8-8.8-5.8-5.5 0-9.9 4.4-9.9 9.9h5.5c0-2.4 2-4.4 4.4-4.4 2 0 3.3 1.3 3.8 2.5.3.7.7 2.1-.6 3.5l-14.5 14.8h19.4l5.5-5.5h-11.8zm31.8-1.7c0-7.5-6.1-13.6-13.6-13.6s-13.6 6.1-13.6 13.6c0 1.7.3 3.4.9 4.9h6.3c-1-1.4-1.7-3-1.7-4.9 0-4.5 3.6-8.1 8.1-8.1s8.1 3.6 8.1 8.1-3.6 8.1-8.1 8.1c-2.6 0-4.9-1.3-6.4-3.2l-3.9 3.9c2.5 2.9 6.2 4.8 10.4 4.8 7.4 0 13.5-6.1 13.5-13.6z"/><path d="m139 112.8c7.5 0 13.6-6.1 13.6-13.6 0-1.7-.3-3.4-.9-4.9h-6.3c1 1.4 1.7 3 1.7 4.9 0 4.5-3.6 8.1-8.1 8.1s-8.1-3.6-8.1-8.1 3.6-8.1 8.1-8.1c2.6 0 4.9 1.3 6.4 3.2l3.9-3.9c-2.5-2.9-6.2-4.8-10.4-4.8-7.5 0-13.6 6.1-13.6 13.6.1 7.5 6.2 13.6 13.7 13.6zm41.7-26.2h-7.4l-11.1 12.3v-12.3h-5.5l-5.5 5.5h5.5v19.9h5.5v-12.3l13.8 12.3h8.3l-14.7-13.1zm-80.5 5.5h-5.5l5.5-5.5h14.2c5.3.6 9.3 5.1 9.3 10.5 0 5.8-4.7 10.6-10.6 10.6h-7.4v4.4h-5.5zm5.5 10h7.4c2.8 0 5-2.3 5-5 0-2.8-2.3-5-5-5h-7.4z"/><path d="m113.7 125.7v19.9h5.5v-10h12.1v10h5.5v-25.5h-5.5v10h-12.1v-10h-5.5l-5.5 5.5zm34.8 14.4 5.8-13.1 5.8 13.1h-11.6l5.5 5.5h14.5l-11.2-25.5h-6.1l-11.2 25.5h6.1zm45 0h-12.7c.2-.5.4-1.1.6-1.6l3.4-12.7h8.7v14.3l5.5-5.5v-14.3h-20l-5.5 5.5h5.5l-3 11.2c-.5 1.9-1.3 3.1-3.7 3.1h-1.9v5.5l5.5 5.5v-5.5h20.4l5.5 5.5v-11.1h-8.3z"/><path d="m198.5 152.8c-4.1 0-7.9 1.9-10.4 4.8l3.9 3.9c1.5-1.9 3.8-3.2 6.4-3.2 4.5 0 8.1 3.6 8.1 8.1s-3.6 8.1-8.1 8.1-8.1-3.6-8.1-8.1c0-1.8.6-3.5 1.7-4.9h-6.3c-.6 1.5-.9 3.2-.9 4.9 0 7.5 6.1 13.6 13.6 13.6s13.6-6.1 13.6-13.6c.1-7.5-6-13.6-13.5-13.6zm-17.6 1h-16.9v25.4h5.5v-19.9h16.9zm59.5-.1h-6.9l-13 18.1v-18.1h-5.5v25.5h6.9l13-18.1v18.1h5.5l5.5-5.5h-5.5zm-12.7 2.5v-7.6h-7.6zm-98.4 10.2c0 7.5-6.1 13.6-13.6 13.6s-13.6-6.1-13.6-13.6 6.1-13.6 13.6-13.6 13.6 6.1 13.6 13.6zm-5.6 0c0-4.5-3.6-8.1-8.1-8.1s-8.1 3.6-8.1 8.1 3.6 8.1 8.1 8.1 8.1-3.6 8.1-8.1zm9.7-7.1h5.5l-3 11.2c-.2.9-1.4 3.8-5.5 3l-1.1 5.4c2.9.6 5.6.1 7.8-1.3 2-1.3 3.5-3.3 4.1-5.7l3.4-12.7h.2 9.4v19.9h5.5v-25.4h-20.9zm-32.7 12.1c0 4.3-3.5 7.8-7.8 7.8h-16.1v-19.8h-5.5l5.5-5.5h13.4c4.2 0 7.7 3.4 7.7 7.7 0 1.2-.3 2.3-.8 3.3 2.1 1.2 3.6 3.7 3.6 6.5zm-5.6 0c0-1.3-1-2.3-2.3-2.3h-5.1l-5.5-5.5h7.8c1.2 0 2.1-1 2.1-2.1 0-1.2-1-2.1-2.1-2.1h-7.8v4.3 10.1h10.6c1.3-.2 2.3-1.2 2.3-2.4z"/></g></svg>