<svg width="286" height="71" viewBox="0 0 382.7 95.2" xmlns="http://www.w3.org/2000/svg" xmlns:xlink="http://www.w3.org/1999/xlink"><clipPath id="a"><path d="m0 0h382.7v95.2h-382.7z"/></clipPath><g fill="#e30611"><path clip-path="url(#a)" d="m34 0c-7.1 0-15.5 6.8-22.5 18.3-7.2 11.9-11.5 26.6-11.5 39.4 0 18.7 10.5 37.6 34 37.6s34-18.9 34-37.6c0-12.8-4.3-27.5-11.5-39.4-7-11.5-15.4-18.3-22.5-18.3"/><path clip-path="url(#a)" d="m217.7 28.1h23.8v62h25.5v-62h23.8v-23h-73.1z"/><path clip-path="url(#a)" d="m345.3 28.1h37.4v-23h-37.4c-34.4 0-52.7 17.1-52.7 42.5s18.4 42.5 52.7 42.5h37.4v-23h-37.4c-15.9 0-26.4-5.7-26.4-19.6s10.4-19.4 26.4-19.4"/><path clip-path="url(#a)" d="m165.8 5.1-13.6 50.8-13.6-50.8h-45.1v85h25.6v-69.1l18.5 69.1h29.2l18.6-69.2v69.2h25.5v-85z"/></g></svg>