<svg enable-background="new 0 0 300 300" viewBox="0 0 300 300" xmlns="http://www.w3.org/2000/svg"><path d="m44 43.9h212.1v212.1h-212.1z" fill="#fafdff" transform="matrix(.7071 -.7071 .7071 .7071 -62.1041 150.0128)"/><path d="m83.5 83.4h133.1v133.1h-133.1z" fill="#ffdc00" transform="matrix(.7071 -.7071 .7071 .7071 -62.1035 150.0112)"/><g fill="#141414"><path d="m121.3 207.9h11.8l-5.5 5.5h-19.4l14.5-14.8c1.3-1.4.9-2.8.6-3.5-.5-1.1-1.8-2.5-3.8-2.5-2.4 0-4.4 2-4.4 4.4h-5.5c0-5.5 4.4-9.9 9.9-9.9 3.8 0 7.3 2.3 8.8 5.8 1.4 3.3.8 6.9-1.7 9.5zm37.2-7.2c0-7.5-6.1-13.6-13.6-13.6s-13.6 6.1-13.6 13.6c0 1.7.3 3.4.9 4.9h6.3c-1-1.4-1.7-3-1.7-4.9 0-4.5 3.6-8.1 8.1-8.1s8.1 3.6 8.1 8.1-3.6 8.1-8.1 8.1c-2.6 0-4.9-1.3-6.4-3.2l-3.9 3.9c2.5 2.9 6.2 4.8 10.4 4.8 7.3 0 13.5-6.1 13.5-13.6zm18.3 1.8c2.5-2.6 3.1-6.3 1.7-9.6-1.5-3.5-5-5.8-8.8-5.8-5.5 0-9.9 4.4-9.9 9.9h5.5c0-2.4 2-4.4 4.4-4.4 2 0 3.3 1.3 3.8 2.5.3.7.7 2.1-.6 3.5l-14.5 14.8h19.4l5.5-5.5h-11.8zm31.7-1.8c0-7.5-6.1-13.6-13.6-13.6s-13.6 6.1-13.6 13.6c0 1.7.3 3.4.9 4.9h6.3c-1-1.4-1.7-3-1.7-4.9 0-4.5 3.6-8.1 8.1-8.1s8.1 3.6 8.1 8.1-3.6 8.1-8.1 8.1c-2.6 0-4.9-1.3-6.4-3.2l-3.9 3.9c2.5 2.9 6.2 4.8 10.4 4.8 7.4 0 13.5-6.1 13.5-13.6z"/><path d="m123.1 119.3c-7.5 0-13.6 6.1-13.6 13.6s6.1 13.6 13.6 13.6 13.6-6.1 13.6-13.6-6.1-13.6-13.6-13.6zm0 21.7c-4.5 0-8.1-3.6-8.1-8.1s3.6-8.1 8.1-8.1 8.1 3.6 8.1 8.1c0 4.4-3.6 8.1-8.1 8.1z"/><path d="m144.7 127.5 13.1 18.1h6.9v-19.9h5.5l-5.5-5.6h-5.6v18.1l-13-18.1h-6.9v25.5h5.5z"/><path d="m211.9 164.1h-8.6l-5.5 5.5h7.9c-1.3 2.8-4.1 4.8-7.4 4.8-2.6 0-4.9-1.3-6.4-3.2l-3.9 3.9c2.5 2.9 6.2 4.8 10.4 4.8 6.4 0 11.8-4.4 13.2-10.3.4-2 .3-5.5.3-5.5z"/><path d="m198.3 158.3c2.6 0 5 1.3 6.4 3.2l3.9-3.9c-2.5-2.9-6.2-4.8-10.4-4.8-7.5 0-13.6 6.1-13.6 13.6 0 1.7.3 3.4.9 4.9h6.3c-1-1.4-1.7-3-1.7-4.9.1-4.5 3.7-8.1 8.2-8.1z"/><path d="m227.3 153.6h-6.1l-11.2 25.5h6.1l2.4-5.5 5.7-13.1 5.8 13.1h-11.5l5.5 5.5h14.5z"/><path d="m175.3 153.6h-5.5v25.5h11.7l5.5-5.6h-11.7z"/><path d="m142.6 159.2-5.6-5.6h-4.8-1.3l-8.1 18.7-8.1-18.7h-6.1l11.2 25.5h6l8.8-19.9h2.4z"/><path d="m153.4 152.8c-4.1 0-7.9 1.9-10.4 4.8l3.9 3.9c1.5-1.9 3.8-3.2 6.4-3.2 4.5 0 8.1 3.6 8.1 8.1s-3.6 8.1-8.1 8.1-8.1-3.6-8.1-8.1c0-1.8.6-3.5 1.7-4.9h-6.3c-.6 1.5-.9 3.2-.9 4.9 0 7.5 6.1 13.6 13.6 13.6s13.6-6.1 13.6-13.6c.1-7.5-6-13.6-13.5-13.6z"/><path d="m125.3 112.9c7.5 0 13.6-6.1 13.6-13.6s-6.1-13.6-13.6-13.6-13.6 6.1-13.6 13.6 6.1 13.6 13.6 13.6zm0-21.7c4.5 0 8.1 3.6 8.1 8.1 0 4.4-3.6 8.1-8.1 8.1s-8.1-3.6-8.1-8.1 3.7-8.1 8.1-8.1z"/><path d="m88.5 112h5.5v-19.9h7c1.7 0 3.1 1.4 3.1 3.1s-1.4 3.1-3.1 3.1h-.3-6.7l12.2 13.7h6.7l-8.1-9.1c2.8-1.4 4.8-4.3 4.8-7.7 0-4.7-3.9-8.6-8.6-8.6h-7-2.8-2.8l-5.4 5.5h5.5z"/><path d="m171.1 92.1v19.9h5.5v-12.3l13.9 12.4h8.3l-14.7-13.2 11.1-12.3h-7.5l-11.1 12.3v-12.3h-5.5l-5.6 5.5z"/><path d="m154.8 112.9c4.1 0 7.9-1.9 10.4-4.8l-3.9-3.9c-1.5 1.9-3.8 3.2-6.4 3.2-4.5 0-8.1-3.6-8.1-8.1s3.6-8.1 8.1-8.1c2.6 0 4.9 1.3 6.4 3.2l3.9-3.9c-2.5-2.9-6.2-4.8-10.4-4.8-7.5 0-13.6 6.1-13.6 13.6s0 0 0 0c0 7.5 6.1 13.6 13.6 13.6z"/></g></svg>