<svg enable-background="new 0 0 311.1 180.5" viewBox="0 0 311.1 180.5" xmlns="http://www.w3.org/2000/svg" xmlns:xlink="http://www.w3.org/1999/xlink"><clipPath id="a"><path d="m0 0h311.1v180.5h-311.1z"/></clipPath><g fill="#fff"><path clip-path="url(#a)" d="m130.2 99.3c-12.7 16.9-23.7 12.8-32.5-4-3.7 3.8-7.8 7.3-12.1 10.4-9.3 5.9-19.4.4-20-10.8-.2-4.1 0-8.3-.2-12.5-.4-1.5-1-2.9-1.9-4.1-1.4.7-3.4 1.1-4.1 2.2-1.6 3-3 6.1-4.1 9.3-1.7 4-3.1 8-4.9 11.9-1.8 4-6.2 6.1-10.4 5-4.2-.4-7.4-3.9-7.3-8.2-.3-5.3.3-10.7 0-16.1-.3-1.8-.9-3.5-1.7-5.1-1.4 1.2-3.5 2.1-4.2 3.6-2.8 6.1-5.3 12.7-8.1 18.9-.8 2.1-2 4.1-3.5 5.9-3 3.4-8.2 3.8-11.7.8-1.4-1.2-2.3-2.9-2.7-4.7-.3-.9-.4-1.8-.5-2.7 0-12.5-.4-25.2-.2-37.8.1-3.3 1.2-6.6 3.1-9.3 2-2.6 4.8-4.4 8-5.3 4.8-1.3 7.2 1 7.4 6.2.2 4 0 8.1 0 12.1l2.1.6c1.5-1.5 2.9-3.1 4.2-4.8 2.6-4.3 4.9-8.9 7.5-13.2 1.9-3.9 6.4-5.8 10.5-4.5 4.1.9 6.8 4.9 6.2 9v13.5l1.8.6c1.3-1.1 2.4-2.4 3.5-3.7 3.7-4.5 7.2-9.2 11.1-13.5 1.6-1.8 3.6-3.3 5.9-4.2 4.5-2.2 10-.3 12.2 4.2.8 1.7 1.1 3.7.8 5.5-.6 9-1.2 18.1-1.7 27.1 0 1.6.1 3.3.2 4.9 6.7-2.2 11.7-8 12.7-15 .5-7.5 1.4-14.9 2.7-22.2.7-4.5 4.4-7.9 8.9-8.2 4-.8 8.2.8 10.6 4.1 2.7 3.9 2.8 9.1.2 13.1-3.7 6.2-3.5 13-2.7 19.7.4 2.9 2 5.5 4.5 7.2 3.4 1.7 6.2-1.3 7.6-4.3 2.4-6.1 4.5-12.4 6.2-18.7 1.3-4.4 1.8-9 3.1-13.4 1.9-6.1 6.2-8.8 11.4-7.5 5.5 1.4 9 6.7 8.1 12.3-.4 3.1-1.6 5.9-2.1 8.9-1.5 9.2-2.8 18.4-4.3 28 7-2.2 12.6-4.1 18.4-5.6 2.7-.6 5.5-.8 8.2-.5 5.2 0 7.6 2.6 9.3 8.4 5.7 18.5 18 29.5 37.1 32.8 27.5 4.6 53.7-20 50.9-47.8-.2-1.8-.4-3.7-.6-5.5-1.1-5 2.1-10 7.1-11.1s10 2.1 11.1 7.1c.1.6.2 1.2.2 1.8 3.8 25.2-4.2 46.2-24.4 61.8-27.8 21.2-67.6 15.8-88.8-12-1.7-2.3-3.3-4.7-4.7-7.2-4.3-7.4-5.6-7.9-13.4-4.1-.4.2-.8.4-1.2.6-7.8 2.9-10.7 8.3-11.4 16.7-1 13.3-3.1 26.5-6.2 39.4-4.2 16.5-14.3 19.5-28 9.3-17-12.4-20.1-31.5-7.1-47.7 5.6-6.5 12-12.3 18.9-17.3 3.9-2.1 5.8-6.2 5-10.3m-1.3 31-1.9-.8c-2.7 3.6-5.1 7.3-7.4 11.1-1.8 3.7-1 8.2 2.1 11 2 2.1 4.1 2.7 4.6-1.1 1-6.8 1.6-13.5 2.6-20.2"/><path clip-path="url(#a)" d="m260 30.2c-.8-6.5 1.9-13 7.1-17 3.9-3.5 7.3-7.4 11.2-11 1.4-1 3-1.7 4.7-2.1.7 1.4 1.2 3 1.4 4.5.2 5.5.1 11 0 16.6 0 3.9 1.7 5.6 5.6 5.5h17c1.4.2 2.8.7 4.1 1.4-.4 1.5-1 3-1.8 4.3-4.5 4.8-9.3 9.3-13.9 14.1-3.2 3.3-7.7 4.8-12.2 4.1-6.3-1-12.6 1.6-16.4 6.8-4.8 5.5-10.5 10.3-15.6 15.7-1.4 1.6-2.2 3.7-2.2 5.9.8 10.8-7.3 20.1-18 20.9-10.8.8-20.1-7.3-20.9-18-.1-.7-.1-1.4 0-2 .4-10.6 9.2-18.9 19.8-18.5.5 0 1.1.1 1.6.1 2.7.5 5.5-.5 7.3-2.6 5.2-5.4 10.4-10.8 16.1-15.9 3.9-3.6 6.4-7.3 5.1-12.8"/><path clip-path="url(#a)" d="m172.3 54c.5-1.7 1.2-3.3 2-4.8 13.5-23.2 40.1-35.5 66.6-30.7 6.4 1.2 10.1 5.6 9.2 11s-5.8 8.7-12.5 7.4c-18.2-3.3-36.6 4.8-46.3 20.5-.8 1.5-1.7 2.9-2.8 4.2-2.6 3-6.9 4-10.5 2.3-3.8-1.5-5.8-4.6-5.7-9.9"/></g></svg>