<svg enable-background="new 0 0 386.2 75.8" viewBox="0 0 386.2 75.8" xmlns="http://www.w3.org/2000/svg" xmlns:xlink="http://www.w3.org/1999/xlink"><clipPath id="a"><path d="m0 0h386.2v75.8h-386.2z"/></clipPath><g fill="#fff"><path clip-path="url(#a)" d="m36.2 0v11.7h-6.5s-5.9-.8-5.9 4.8v9.2h12.4l-1.5 12.7h-10.8v35.6h-14.3v-35.7h-9.6v-12.5h10.1v-10.7s-1.3-5.9 4-10.7c5.2-4.8 12.1-4.4 12.1-4.4z"/><path clip-path="url(#a)" d="m70.6 26v6.4c-3.6-4.8-8.7-7.8-14.3-7.8-11 0-20 9.7-20 25.6 0 15.8 9 25.6 20 25.6 5.7 0 10.8-3 14.4-7.9l-.1 6.2h13.7v-48.1zm-.8 29c0 4.9-4.1 9.4-9.2 9.4s-9.2-4.6-9.2-9.4v-9.2c0-4.9 4.1-9.4 9.2-9.4s9.2 4.6 9.2 9.4z"/><path clip-path="url(#a)" d="m196.3 74.5v-6.4c3.6 4.8 8.7 7.8 14.3 7.8 11 0 20-9.7 20-25.6 0-15.8-9-25.6-20-25.6-5.7 0-10.8 3-14.4 7.9l.1-31.8-14.3 1.6v71.9zm.8-29c0-4.9 4.1-9.4 9.2-9.4s9.2 4.6 9.2 9.4v9.2c0 4.9-4.1 9.4-9.2 9.4s-9.2-4.6-9.2-9.4z"/><path clip-path="url(#a)" d="m115.3 64.1s-11 .6-11-13.6v-.8c0-14.2 11-13.6 11-13.6 7.4-.1 10.1 2.5 10.1 2.5l3.5-10.4c-6-4.4-24-5.1-32 2.3-7 6.4-7 16.9-6.8 19.5-.1 2.7-.1 13.1 6.8 19.6 8.1 7.4 26.1 6.7 32 2.3l-3.5-10.4c-.1.1-2.7 2.7-10.1 2.6"/><path clip-path="url(#a)" d="m176.1 55.3s5.8-30.2-21.8-30.3c-27.5-.2-23.6 27.3-23.6 27.3.6 16.7 8.3 21.5 21.4 23 13.1 1.6 23-3.5 23-3.5l-3-9.7s-10.6 3.2-19 2.5-7.7-9.3-7.7-9.3zm-30.9-9.7s-.7-10.7 8.9-10.7 8.9 10.7 8.9 10.7z"/><path clip-path="url(#a)" d="m259 25.3c-17.9 0-24 10.8-24 25.3 0 15.3 7.8 25.3 24 25.3 13.2 0 24-8.9 24-25.3 0-14-6.8-25.3-24-25.3m9.4 29.4c0 4.9-4.2 9.4-9.5 9.4-5.2 0-9.5-4.6-9.5-9.4v-9.2c0-4.9 4.2-9.4 9.5-9.4 5.2 0 9.5 4.6 9.5 9.4z"/><path clip-path="url(#a)" d="m312 25.3c-17.9 0-24 10.8-24 25.3 0 15.3 7.8 25.3 24 25.3 13.2 0 24-8.9 24-25.3-.1-14-6.9-25.3-24-25.3m9.3 29.4c0 4.9-4.2 9.4-9.5 9.4-5.2 0-9.5-4.6-9.5-9.4v-9.2c0-4.9 4.2-9.4 9.5-9.4 5.2 0 9.5 4.6 9.5 9.4z"/><path clip-path="url(#a)" d="m386.2 74.4-15.7-24.3 15-24.2h-15.4l-14.6 21.7v-47.2l-14.4 1.6v72.4h14.4v-24.7l15.8 24.7z"/></g></svg>