<svg enable-background="new 0 0 300 133" viewBox="0 0 300 133" xmlns="http://www.w3.org/2000/svg"><g fill="#fff"><path d="m145.3 124.6h16l-7.5 7.5h-26.3l19.7-20.1c1.7-1.8 1.2-3.8.8-4.7-.7-1.5-2.4-3.3-5.1-3.3-3.3 0-5.9 2.7-5.9 5.9h-7.5c0-7.4 6-13.4 13.4-13.4 5.2 0 9.9 3.1 12 7.8 1.9 4.4 1.1 9.4-2.2 12.9l-.1.1zm50.3-9.8c0-10.2-8.3-18.5-18.5-18.5s-18.5 8.3-18.5 18.5c0 2.3.5 4.6 1.2 6.6h8.5c-1.4-1.8-2.2-4.1-2.2-6.6 0-6 4.9-11 11-11 6 0 11 4.9 11 11 0 6-4.9 11-11 11-3.6 0-6.7-1.7-8.7-4.3l-5.3 5.3c3.4 4 8.4 6.5 14.1 6.5 10.1 0 18.4-8.3 18.4-18.5zm24.9 2.4c3.4-3.6 4.2-8.5 2.3-13-2.1-4.8-6.8-7.8-12-7.8-7.4 0-13.4 6-13.4 13.4h7.5c0-3.3 2.7-5.9 5.9-5.9 2.7 0 4.4 1.8 5.1 3.3.4 1 .9 2.9-.8 4.8l-19.7 20.1h26.3l7.5-7.5h-16zm43.1-2.4c0-10.2-8.3-18.5-18.5-18.5s-18.5 8.3-18.5 18.5c0 2.3.4 4.6 1.2 6.6h8.5c-1.4-1.8-2.2-4.1-2.2-6.6 0-6 4.9-11 11-11 6 0 11 4.9 11 11 0 6-4.9 11-11 11-3.6 0-6.7-1.7-8.7-4.3l-5.3 5.3c3.4 4 8.4 6.5 14.1 6.5 10.1 0 18.4-8.3 18.4-18.5z"/><path d="m200.9 0c-10.2 0-18.5 8.3-18.5 18.5s8.3 18.5 18.5 18.5 18.5-8.3 18.5-18.5-8.3-18.5-18.5-18.5zm0 29.4c-6 0-11-4.9-11-11 0-6 4.9-11 11-11 6 0 11 4.9 11 11-.1 6.1-5 11-11 11z"/><path d="m230.2 11.2 17.7 24.6h9.4v-27.1h7.5l-7.5-7.5h-7.5v24.5l-17.7-24.5h-9.4v34.6h7.5z"/><path d="m263.9 63.8h-11.6l-7.5 7.5h10.7c-1.7 3.8-5.6 6.5-10 6.5-3.6 0-6.7-1.7-8.7-4.3l-5.3 5.3c3.4 4 8.4 6.5 14.1 6.5 8.7 0 15.9-6 17.9-14 .5-2.7.4-7.5.4-7.5z"/><path d="m245.4 55.9c3.6 0 6.7 1.7 8.7 4.3l5.3-5.3c-3.4-4-8.4-6.5-14.1-6.5-10.2 0-18.5 8.3-18.5 18.5 0 2.3.4 4.6 1.2 6.6h8.5c-1.4-1.8-2.2-4.1-2.2-6.6.2-6 5.1-11 11.1-11z"/><path d="m284.8 49.6h-8.3l-15.1 34.6h8.2l3.3-7.5 7.8-17.8 7.8 17.8h-15.6l7.5 7.5h19.6z"/><path d="m214.3 49.7h-7.5v34.5h15.8l7.6-7.5h-15.9z"/><path d="m169.8 57.1-7.5-7.5h-6.5-1.8l-11 25.3-11-25.3h-8.3l15.2 34.6h8.2l11.9-27.1h3.3z"/><path d="m184.6 48.4c-5.6 0-10.7 2.5-14.1 6.5l5.3 5.3c2-2.6 5.2-4.3 8.7-4.3 6 0 11 4.9 11 11 0 6-4.9 11-11 11-6 0-11-4.9-11-11 0-2.5.8-4.8 2.2-6.6h-8.5c-.8 2.1-1.2 4.3-1.2 6.6 0 10.2 8.3 18.5 18.5 18.5s18.5-8.3 18.5-18.5-8.3-18.5-18.4-18.5z"/><path d="m72.8 37c10.2 0 18.5-8.3 18.5-18.5 0-10.1-8.3-18.4-18.5-18.4s-18.5 8.3-18.5 18.5 8.3 18.4 18.5 18.4zm0-29.4c6 0 11 4.9 11 11 0 6-4.9 11-11 11-6 0-11-4.9-11-11s5-11 11-11z"/><path d="m22.8 35.8h7.5v-26.9h9.5c2.3 0 4.2 1.9 4.2 4.2s-1.9 4.2-4.2 4.2h-.4-9.1l16.5 18.6h9.2l-10.9-12.5c3.8-1.9 6.5-5.9 6.5-10.4 0-6.4-5.2-11.7-11.7-11.7h-9.5-3.7-3.8l-7.5 7.5h7.5v27z"/><path d="m134.9 8.9v27h7.5v-16.7l18.8 16.7h11.3l-20-17.8 15.1-16.7h-10.1l-15.1 16.7v-16.7h-7.5l-7.5 7.5z"/><path d="m112.8 37c5.6 0 10.7-2.5 14.1-6.5l-5.3-5.3c-2 2.6-5.2 4.3-8.7 4.3-6 0-11-4.9-11-11 0-6 4.9-11 11-11 3.6 0 6.7 1.7 8.7 4.3l5.3-5.3c-3.4-4-8.4-6.5-14.1-6.5-10.2 0-18.5 8.3-18.5 18.5s0 0 0 0c0 10.2 8.3 18.5 18.5 18.5z"/></g></svg>