<svg enable-background="new 0 0 300 133" viewBox="0 0 300 133" xmlns="http://www.w3.org/2000/svg"><g fill="#fff"><path d="m225.4 1.3h-10.7l-15.9 17.7v-17.7h-7.9v.1l-8 7.9h8v28.5h7.9v-17.7l19.9 17.7 11.9.1-21.1-18.9z"/><path d="m110 9.3v28.6h7.9v-6.3h10.6c8.4 0 15.2-6.8 15.2-15.1 0-7.8-5.9-14.2-13.4-15h-20.3l-8 7.8zm18.5-.1c4 0 7.2 3.2 7.2 7.2s-3.2 7.2-7.2 7.2h-10.6v-14.4z"/><path d="m165.7 39c10.8 0 19.5-8.8 19.5-19.5 0-2.5-.5-4.8-1.3-7h-9c1.5 1.9 2.4 4.4 2.4 7 0 6.4-5.2 11.6-11.6 11.6s-11.6-5.2-11.6-11.6 5.2-11.6 11.6-11.6c3.8 0 7.1 1.8 9.2 4.6l5.6-5.6c-3.6-4.2-8.9-6.9-14.8-6.9-10.8 0-19.5 8.8-19.5 19.5-.1 10.8 8.7 19.5 19.5 19.5z"/><path d="m194 48.4-16.1 36.5h8.8l3.4-7.9 8.2-18.9 8.3 18.9h-16.5l7.9 7.9h20.7l-16-36.5z"/><path d="m148.1 84.9v-14.3h17.3v14.3h7.9v-36.5h-7.9v14.2h-17.3v-14.2h-7.9l-8 7.9h8v28.6z"/><path d="m251.1 95.5h-21.6v36.5h7.9v-28.5h21.6z"/><path d="m159.3 94c-10.8 0-19.5 8.8-19.5 19.5 0 10.8 8.7 19.5 19.5 19.5s19.5-8.8 19.5-19.5c.1-10.8-8.7-19.5-19.5-19.5zm0 31.1c-6.4 0-11.6-5.2-11.6-11.6s5.2-11.6 11.6-11.6 11.6 5.2 11.6 11.6-5.2 11.6-11.6 11.6z"/><path d="m184.8 103.3h7.9l-4.3 16.1c-.4 1.3-1.9 5.4-7.9 4.2l-1.5 7.8c4.2.8 8 .2 11.2-1.8 2.9-1.8 5-4.7 5.9-8.2l4.9-18.2h.2 13.5v28.5h7.9v-36.3h-29.9z"/><path d="m132.6 111.1c.7-1.4 1.1-3 1.1-4.7 0-6.1-4.9-11-11-11h-19.2l-7.9 7.9h7.9v28.4h23.1c6.2 0 11.2-5 11.2-11.2.1-3.9-2-7.4-5.2-9.4zm-5.9 12.7h-15.2v-14.4-6.1h11.2c1.7 0 3.1 1.4 3.1 3.1s-1.4 3.1-3.1 3.1h-11.2l7.9 7.9h7.3c1.8 0 3.3 1.5 3.3 3.3 0 1.7-1.5 3.1-3.3 3.1z"/><path d="m273 116.9h6.3l7-7.1h-13.3v-6.3h26.8l-8-8h-34.7l8 8v20.5l7.9 7.9h13.1l8-7.9h-21.1z"/><path d="m254.8 76.8h-18.2c.3-.7.6-1.5.8-2.4l4.9-18.2h12.4l.1 20.6 7.9-7.9v-20.5h-28.6l-7.9 7.9h7.9l-4.4 16.1c-.7 2.7-1.9 4.4-5.3 4.4h-2.8v7.9l7.9 7.9v-7.9h29.2l7.9 7.9v-15.8z"/></g><path d="m285 70.8c-1.8-2.8-6-4.5-11.2-4.6-2.2-2.2-13.1-13.2-19.9-16.3s-22.3-4-25.4-4.2c-3.5-3.9-7.6-5.9-10.9-5.4-2 .3-3.6 1.5-4.4 3.4-2.5 5.5 2 11.8 5.9 17.4.5.7 1 1.4 1.4 2 .6 8.7 7.9 21.9 15.9 25.5 8.2 3.7 22.8.4 29.7-4.9l2.4-.3c6.8-.8 14.5-1.6 16.9-7.1.8-1.9.7-3.8-.4-5.5zm-69.6-26.1c.5-1.1 1.4-1.8 2.6-2 1.9-.3 5 .7 8.4 4.4-1.3 2.3-4.7 8.6-5.7 12.2-3.4-5-7.2-10.5-5.3-14.6zm53.3 36.2c2.1-3.1 4.5-9.8 5.4-12.3 4.9.2 7.8 1.9 8.8 3.5.7 1 .7 2.1.2 3.2-1.8 4.1-8.4 5-14.4 5.6z" fill="#fafdff"/><path d="m253 86.8c-6.2 1.5-12 1.4-15.7-.3-7.8-3.5-15.4-18.6-14.4-25.8.3-2.6 3.9-9.3 5.6-12.5 3.5.2 18.1 1.2 24.3 4s16.6 13.1 19 15.6c-1.2 3.4-3.9 10.5-5.6 12.5-2.3 2.6-7.4 5.1-13.2 6.5z" fill="#0cf"/><path d="m240.9 78.4c-2.3-1-4.4-2.2-6.5-3.7-2.1-1.4-4-3.1-5.8-5 .5 1.2 1.1 2.4 1.9 3.5s1.7 2.1 2.7 3c2 1.8 4.2 3.3 6.7 4.4 2.4 1.1 5.1 1.8 7.7 2.1 1.3.1 2.7.2 4 0 1.3-.1 2.6-.4 3.9-.8-2.6-.1-5.1-.5-7.6-1.1-2.3-.5-4.7-1.4-7-2.4z" fill="#fafdff"/><path d="m244.7 70c-2.9-1.3-5.8-2.8-8.6-4.3-2.8-1.6-5.6-3.3-8.2-5.2 2 2.7 4.5 4.9 7.2 6.8s5.6 3.6 8.6 4.9c3 1.4 6.2 2.5 9.4 3.2s6.6 1.2 9.9.9c-3.2-.8-6.3-1.7-9.3-2.8-3-1-6-2.2-9-3.5z" fill="#fafdff"/><path d="m248 62.8c2.7 1.2 5.3 2.5 7.9 3.8s5.2 2.7 7.8 4.2c-.5-.6-1-1.1-1.6-1.6s-1.1-1-1.7-1.5c-1.2-1-2.4-1.9-3.6-2.7-2.5-1.7-5.2-3.1-7.9-4.4-2.7-1.2-5.6-2.3-8.5-3-1.5-.4-2.9-.7-4.4-.9-.7-.1-1.5-.2-2.2-.3-.8-.1-1.5-.1-2.3-.1 2.9 1 5.6 2 8.3 3.1 2.8 1.1 5.5 2.2 8.2 3.4z" fill="#fafdff"/></svg>