<svg enable-background="new 0 0 894.9 894.9" viewBox="0 0 894.9 894.9" xmlns="http://www.w3.org/2000/svg"><path d="m447.5 894.9-447.5-447.4 447.5-447.5 447.4 447.5z" fill="#fafdff"/><path d="m248.9 248.9h397.1v397.1h-397.1z" fill="#ffdc00" transform="matrix(.7071 -.7071 .7071 .7071 -185.3455 447.4652)"/><g fill="#141414"><path d="m372.2 654.1h35.1l-16.5 16.5h-57.8l43.4-44.3c3.7-4 2.7-8.3 1.8-10.4-1.5-3.4-5.3-7.3-11.2-7.3-7.2 0-13 5.8-13 13h-16.5c0-16.3 13.2-29.5 29.5-29.5 11.5 0 21.8 6.8 26.3 17.3 4.2 9.7 2.3 20.6-4.9 28.3l-.1.1zm110.7-21.4c0-22.4-18.2-40.6-40.6-40.6s-40.6 18.2-40.6 40.6c0 5.1 1 10 2.7 14.5h18.7c-3.1-4-4.9-9.1-4.9-14.5 0-13.3 10.8-24.1 24.1-24.1s24.1 10.8 24.1 24.1-10.8 24.1-24.1 24.1c-7.8 0-14.8-3.8-19.2-9.5l-11.7 11.7c7.5 8.7 18.5 14.3 30.9 14.3 22.4 0 40.6-18.2 40.6-40.6zm54.7 5.1.1-.1c7.3-7.8 9.2-18.6 4.9-28.4-4.5-10.5-14.9-17.3-26.3-17.2-16.3 0-29.5 13.2-29.5 29.5h16.5c0-7.2 5.8-13 13-13 5.9 0 9.7 3.9 11.2 7.3.9 2.2 2 6.4-1.8 10.4l-43.4 44.3h57.8l16.5-16.5h-35.1zm94.7-5.1c0-22.4-18.2-40.6-40.6-40.6s-40.6 18.2-40.6 40.6c0 5.1 1 10 2.7 14.5h18.7c-3.1-4-4.9-9.1-4.9-14.5 0-13.3 10.8-24.1 24.1-24.1s24.1 10.8 24.1 24.1-10.8 24.1-24.1 24.1c-7.8 0-14.8-3.8-19.2-9.5l-11.7 11.7c7.5 8.7 18.5 14.3 30.9 14.3 22.4 0 40.6-18.2 40.6-40.6z"/><path d="m488.9 499c-12.4 0-23.4 5.6-30.9 14.3l11.7 11.7c4.4-5.8 11.4-9.5 19.2-9.5 13.3 0 24.1 10.8 24.1 24.1s-10.8 24.1-24.1 24.1-24.1-10.8-24.1-24.1c0-5.5 1.8-10.5 4.9-14.6h-18.7c-1.7 4.5-2.7 9.4-2.7 14.5 0 22.4 18.2 40.6 40.6 40.6s40.6-18.2 40.6-40.6c0-22.3-18.2-40.5-40.6-40.5zm-52.5 2.9h-50.3v75.9h16.5v-59.4h50.3zm177.9-.1h-20.6l-40.5 54v-54h-16.5v76h20.6l40.5-54v54h16.5l16.5-16.5h-16.5zm-38.2 7.3v-22.6h-22.6z"/><path d="m400.9 302.9c22.4 0 40.6-18.2 40.6-40.6 0-5.1-1-10-2.7-14.5h-18.7c3.1 4 4.9 9.1 4.9 14.5 0 13.3-10.8 24.1-24.1 24.1s-24.1-10.8-24.1-24.1 10.8-24.1 24.1-24.1c7.8 0 14.8 3.8 19.2 9.5l11.7-11.7c-7.5-8.7-18.5-14.3-30.9-14.3-22.4 0-40.6 18.2-40.6 40.6s18.2 40.6 40.6 40.6zm124.4-78.4h-22.2l-33.1 36.8v-36.8h-16.5l-16.6 16.5h16.5v59.4h16.5v-36.8l41.4 36.9h24.8l-44-39.2zm-240.3 16.5h-16.5l16.5-16.5h42.3c15.7 1.8 27.9 15.2 27.9 31.3 0 17.4-14.2 31.5-31.6 31.5h-22.1v13.1h-16.5zm16.5 29.8h22.1c8.3 0 15-6.7 15-15s-6.7-15-15-15h-22.1z"/><path d="m386.1 333.5v59.5h16.5v-29.8h36v29.7h16.5v-76h-16.5v29.7h-36v-29.6h-16.5l-16.5 16.5zm103.9 43 17.2-39.2 17.2 39.2h-34.4l16.5 16.5h43.2l-33.4-76h-18.2l-33.4 76h18.2zm134.1-.2h-37.8c.6-1.5 1.2-3.2 1.7-4.9l10.2-37.9h25.9v42.8l16.5-16.5v-42.8h-59.5l-16.5 16.5h16.5l-9.1 33.6c-1.5 5.7-3.9 9.2-11 9.2h-5.8v16.5l16.5 16.5v-16.5h60.9l16.5 16.5v-33z"/><path d="m443.3 447.2c0 22.4-18.2 40.6-40.6 40.6s-40.6-18.2-40.6-40.6 18.2-40.6 40.6-40.6 40.6 18.2 40.6 40.6zm-16.5 0c0-13.3-10.8-24.1-24.1-24.1s-24.1 10.8-24.1 24.1 10.8 24.1 24.1 24.1 24.1-10.8 24.1-24.1zm28.9-21.2h16.5l-9 33.5c-.7 2.7-4 11.3-16.3 8.8l-3.2 16.2c8.7 1.7 16.7.4 23.2-3.7 6-3.8 10.3-9.8 12.2-17l10.2-37.8h.5 28.2v59.4h16.5v-75.9h-62.3zm-97.7 36c0 12.8-10.4 23.3-23.3 23.3h-48.1v-59.3h-16.5l16.4-16.4h40c12.6 0 22.9 10.3 22.9 22.9 0 3.5-.8 6.9-2.2 9.9 6.5 4 10.8 11.3 10.8 19.6zm-16.5 0c0-3.7-3-6.8-6.8-6.8h-15.1l-16.4-16.5h23.3c3.5 0 6.4-2.8 6.4-6.4 0-3.5-2.9-6.4-6.4-6.4h-23.3v12.7 30h31.6c3.7.2 6.7-2.9 6.7-6.6z"/></g></svg>