<svg enable-background="new 0 0 195.8 195.8" viewBox="0 0 195.8 195.8" xmlns="http://www.w3.org/2000/svg" xmlns:xlink="http://www.w3.org/1999/xlink"><clipPath id="a"><path d="m0 0h195.8v195.8h-195.8z"/></clipPath><path clip-path="url(#a)" d="m195.8 97.9c0 54.1-43.8 97.9-97.9 97.9s-97.9-43.8-97.9-97.9 43.8-97.9 97.9-97.9 97.9 43.8 97.9 97.9" fill="#00b4ff"/><g fill="#fff"><path clip-path="url(#a)" d="m97.9 187.2c-49.2 0-89.3-40.1-89.3-89.3s40-89.3 89.3-89.3 89.3 40.1 89.3 89.3-40.1 89.3-89.3 89.3m0-175.6c-47.6 0-86.3 38.7-86.3 86.3s38.7 86.3 86.3 86.3 86.3-38.7 86.3-86.3-38.7-86.3-86.3-86.3"/><path clip-path="url(#a)" d="m80.9 47.3c-2.2 8.4 4.8 16.2 13.3 11.9 4.6-2.3 9.3-5.6 9.2-11.8-.3-12.6-19.5-11.4-22.5-.1"/><path clip-path="url(#a)" d="m95.3 36.5c.3 0 .5.1.8.1l-3-14.1-1.7 14c1.3-.1 2.6-.1 3.9 0"/><path clip-path="url(#a)" d="m101.6 39.1 3-12.1-7.2 10c1.7.4 3.1 1.2 4.2 2.1"/><path clip-path="url(#a)" d="m102.4 40.1c1.1 1.1 1.9 2.5 2.3 4.1l7.9-7z"/><path clip-path="url(#a)" d="m83.3 40.1-13.5-10.2 10.5 13.9c.8-1.5 1.8-2.7 3-3.7"/><path clip-path="url(#a)" d="m89 37.1-8.8-13.1 4.6 15c1.3-.8 2.7-1.5 4.2-1.9"/><path clip-path="url(#a)" d="m128.5 77c-.8-3.8-3.1-4.7-6.1-6.5-1.9-1.2-18.2-10.7-19.5-11-3.8-.9-5.6.5-9 2.5-1.3.8-2.6 1.5-3.8 2.3-2.6 1.6-2.6 2.3-2.6 5.2-.1 4.4.1 32.1-.1 32.5-.6.8-15.8 15.6-16.4 16.6-.7 1.2-1.7 5.9-2.1 7.3l-6.8 28.8c-1 4.1 2.1 8 6.3 8 3 0 5.6-2.1 6.3-5 .8-3.4 6.2-26.9 6.9-28.3s4.7-5 6-6.3l16.1-16.1c.9-.9 4.2-3.9 4.7-5 .7-1.6.5-12.5.5-14.1v-13.6c1.5.4 9 5.4 9.4 6.2s.2 17.3.2 19.6c0 2.8 2.3 5.1 5.1 5.1s5.1-2.3 5.1-5.1v-23.1z"/><path clip-path="url(#a)" d="m85 80.4-18.8 18.8c-1 1-1.5 2.2-1.5 3.6 0 4.5 5.4 6.8 8.6 3.6l11.7-11.5z"/><path clip-path="url(#a)" d="m106.8 107.8-9.7 9.6 24.5 42c2.9 4.9 10 4.3 11.9-1 .7-1.8.5-3.8-.5-5.5z"/></g></svg>