<svg enable-background="new 0 0 511 511" viewBox="0 0 511 511" xmlns="http://www.w3.org/2000/svg"><g fill="currentColor"><circle cx="255.314468" cy="255.19545" r="103.906326"/><path d="m509.172882 129.486694c-1.341888-30.333908-6.457031-46.897491-10.720428-57.860489-4.996185-13.522984-12.913879-25.704159-23.267944-35.815487-9.987549-10.353981-22.292419-18.271757-35.810699-23.263184-10.963074-4.263395-27.407654-9.378531-57.860596-10.720418-32.770173-1.460754-42.634004-1.827116-125.956086-1.827116-83.193604 0-93.06221.366362-125.95134 1.827116-30.329223 1.341887-46.897499 6.457023-57.860565 10.720418-13.522987 4.991427-25.704159 12.909204-35.810722 23.263184-10.477764 9.992313-18.395466 22.292503-23.391659 35.815487-4.263396 10.962998-9.378533 27.407639-10.715652 57.860489-1.465521 32.765503-1.827191 42.753052-1.827191 125.951416s.36167 93.066956 1.827191 125.956085c1.33712 30.329224 6.452256 46.897522 10.715652 57.860596 4.996194 13.518219 12.913896 25.699371 23.267952 35.810699 9.987545 10.353973 22.292427 18.271759 35.810719 23.267944 10.962997 4.263397 27.407639 9.37854 57.860497 10.715668 32.770264 1.465515 42.757812 1.827118 125.956177 1.827118s93.06221-.361603 125.95134-1.827118c30.333984-1.337128 46.897491-6.452271 57.860565-10.715668 27.164978-10.477692 48.72467-32.037384 59.202362-59.202362 4.263397-10.963074 9.37854-27.407654 10.720428-57.860565 1.460753-32.889129 1.827117-42.634032 1.827117-125.832397s-.366364-93.062194-1.827118-125.951416zm-253.858414 285.891114c-88.432434 0-160.182343-71.745209-160.182343-160.182358s71.749909-160.18235 160.182343-160.18235c88.437149 0 160.182358 71.74514 160.182358 160.182343s-71.745209 160.182365-160.182358 160.182365zm166.51561-289.302765c-20.650909 0-37.395264-16.744347-37.395264-37.395256 0-20.655602 16.744354-37.395184 37.395264-37.395184 20.65567 0 37.400024 16.739582 37.400024 37.395184.000001 20.650909-16.744354 37.395256-37.400024 37.395256z"/></g></svg>