<svg fill="currentColor" viewBox="0 0 33.8 19.1" xmlns="http://www.w3.org/2000/svg"><path d="m29.1 12.2c1.1 1.1 2.3 2.1 3.3 3.3.4.5.9 1.1 1.2 1.7.5.9 0 1.9-.7 1.9h-4.9c-1.3.1-2.3-.4-3.1-1.3-.7-.7-1.3-1.4-2-2.1-.3-.3-.6-.6-.9-.8-.7-.4-1.3-.3-1.6.4-.4.7-.5 1.5-.5 2.3-.1 1.2-.4 1.5-1.6 1.5-2.5.1-4.8-.3-7-1.5-1.9-1.1-3.4-2.7-4.7-4.4-2.7-3.5-4.7-7.3-6.4-11.2-.4-.8-.1-1.3.8-1.3h4.8c.7 0 1.1.4 1.3 1 .9 2.1 1.9 4.2 3.3 6.1.4.5.7 1 1.2 1.4.6.4 1 .3 1.3-.4.2-.4.2-.8.3-1.3.1-1.5.1-3-.1-4.4-.1-.9-.7-1.5-1.6-1.7-.5-.1-.4-.3-.2-.5.5-.6.9-.9 1.6-.9h5.6c.9.2 1.1.6 1.2 1.4v6.2c0 .3.2 1.4.8 1.6.5.2.8-.2 1.1-.5 1.3-1.4 2.3-3.1 3.1-4.8.4-.8.7-1.6 1-2.3s.6-1 1.3-1h5.4.5c.9.2 1.1.5.9 1.4-.4 1.4-1.3 2.5-2.1 3.7-.9 1.2-1.8 2.4-2.7 3.7-1 1.2-.9 1.8.1 2.8z"/></svg>