<svg enable-background="new 0 0 252.1 66.8" fill="currentColor" viewBox="0 0 252.1 66.8" xmlns="http://www.w3.org/2000/svg"><g><path d="m33.4 0c-18.4 0-33.4 15-33.4 33.4s15 33.4 33.4 33.4 33.4-15 33.4-33.4-15-33.4-33.4-33.4zm0 55.6c-12.2 0-22.2-10-22.2-22.2s10-22.2 22.2-22.2 22.2 10 22.2 22.2-10 22.2-22.2 22.2z"/><path d="m173 1.3-24.1 24.2-24.2-24.2-24.1 24.2-24.2-24.2-7.9 7.9 24.2 24.2-24.2 24.1 7.9 7.9 24.2-24.1 24.1 24.1 7.9-7.9-24.2-24.1 16.3-16.3 48.3 48.3 7.9-7.9-24.1-24.1 24.1-24.2z"/><path d="m218.7 0c-18.4 0-33.4 15-33.4 33.4s15 33.4 33.4 33.4 33.4-15 33.4-33.4-15-33.4-33.4-33.4zm0 55.6c-12.2 0-22.2-10-22.2-22.2s10-22.2 22.2-22.2 22.2 10 22.2 22.2c.1 12.2-9.9 22.2-22.2 22.2z"/></g></svg>